# xmcd
#
# Track frame offsets:
#	150
#	15314
#	36218
#	53566
#	78692
#	92259
#	101331
#	118780
#	142157
#	163291
#	189552
#	203842
#
# Disc length: 2845 seconds
#
# Revision: 1
# Processed by: cddbd v1.5.1PL2 Copyright (c) Steve Scherf et al.
# Submitted via: EasyCDDAExtractor 9.0.0.1
#
DISCID=9a0b1b0c
DTITLE=Saxon - Metalmania Albacete 12-07-03
DYEAR=2003
DGENRE=Hard Rock
TTITLE0=Heavy Metal Thunder
TTITLE1=Solid Ball Of Rock
TTITLE2=Motorcycle Man
TTITLE3=Denim and Leather
TTITLE4=Conquistador
TTITLE5=Drum Solo
TTITLE6=Heavy Metal Thunder (Radio Version)
TTITLE7=Solid Ball Of Rock (Radio Version)
TTITLE8=Motorcycle Man (Radio Version)
TTITLE9=Denim and Leather (Radio Version)
TTITLE10=Conquistador (Radio Version)
TTITLE11=Drum Solo (Radio Version)
EXTD=
EXTT0=
EXTT1=
EXTT2=
EXTT3=
EXTT4=
EXTT5=
EXTT6=
EXTT7=
EXTT8=
EXTT9=
EXTT10=
EXTT11=
PLAYORDER=
